# xmcd
#
# Track frame offsets:
#	150
#	13365
#	26102
#	39633
#	51203
#	61773
#	72204
#	81660
#	92830
#	107627
#	118095
#	128839
#	140535
#	152414
#	163326
#
# Disc length: 2324 seconds
#
# Revision: 1
# Processed by: cddbd v1.5.2PL0 Copyright (c) Steve Scherf et al.
# Submitted via: audiograbber 1.83.01
#
DISCID=d509120f
DTITLE=Various Artist - Classic Country - 1960-1962 [Disc 1]
DYEAR=2001
DGENRE=Country
TTITLE0=Marty Robbins - Devil Woman
TTITLE1=Patsy Cline - I Fall To Pieces
TTITLE2=Claude King - Wolverton Mountain
TTITLE3=Don Gibson - Sea Of Heartbreak
TTITLE4=Jim Reeves - He'll Have To Go
TTITLE5=Ferlin Husky - Wings Of A Dove
TTITLE6=Burl Ives - A Little Bitty Tear
TTITLE7=Floyd Cramer with The Music City Pops - Last Date
TTITLE8=Johnny Horton - Sink The Bismarck
TTITLE9=Frank Ifield - Lovesick Blues
TTITLE10=Hank Locklin - Please Help Me I'm Falling
TTITLE11=George Jones - She Thinks I Still Care
TTITLE12=Skeeter Davis - The End Of The World
TTITLE13=The Fendermen - Mule Skinner Blues
TTITLE14=Lucky Starr - I've Been Everywhere
EXTD=
EXTT0=
EXTT1=
EXTT2=
EXTT3=
EXTT4=
EXTT5=
EXTT6=
EXTT7=
EXTT8=
EXTT9=
EXTT10=
EXTT11=
EXTT12=
EXTT13=
EXTT14=
PLAYORDER=
